<svg width="28" height="23" viewBox="0 0 28 23" fill="none" xmlns="http://www.w3.org/2000/svg">
<path d="M27.8677 11.1717C28.0441 10.9953 28.0441 10.9953 27.8677 11.1717C27.8677 10.9953 27.8677 10.9953 27.8677 10.9953C27.8677 10.9953 27.8677 10.9953 27.8677 10.8189C27.8677 10.8189 27.8677 10.8189 27.8677 10.6425C27.8677 10.6425 27.8677 10.6425 27.8677 10.4661C27.8677 10.4661 27.8677 10.4661 27.8677 10.2898C27.8677 10.2898 27.8677 10.2898 27.8677 10.1134C25.0457 5.1748 19.578 2 13.9339 2C8.28976 2 2.82205 4.99843 0 10.1134C0 10.1134 0 10.1134 0 10.2898C0 10.2898 0 10.2898 0 10.4661C0 10.4661 0 10.4661 0 10.6425C0 10.6425 0 10.6425 0 10.8189C0 10.8189 0 10.8189 0 10.9953C0 10.9953 0 10.9953 0 11.1717C0 11.1717 0 11.1717 0 11.348C0 11.348 0 11.348 0 11.5244C2.82205 16.463 8.28976 19.6378 13.9339 19.6378C19.578 19.6378 25.0457 16.6394 27.8677 11.5244C27.8677 11.348 27.8677 11.1717 27.8677 11.1717ZM13.9339 17.3449C9.17165 17.3449 4.58583 14.8756 2.11654 10.8189C4.76221 6.7622 9.17165 4.29291 13.9339 4.29291C18.6961 4.29291 23.2819 6.7622 25.7512 10.8189C23.2819 14.8756 18.6961 17.3449 13.9339 17.3449Z" fill="black"/>
<path d="M13.9336 15.2283C16.3689 15.2283 18.3431 13.2541 18.3431 10.8189C18.3431 8.3836 16.3689 6.40942 13.9336 6.40942C11.4983 6.40942 9.52417 8.3836 9.52417 10.8189C9.52417 13.2541 11.4983 15.2283 13.9336 15.2283Z" fill="black"/>
</svg>
